<svg width="400" height="400" viewBox="0 0 400 400" fill="none" xmlns="http://www.w3.org/2000/svg">
<g clip-path="url(#clip0)">
<path d="M350 406.5C350 380.039 346.12 353.836 338.582 329.389C331.044 304.942 319.995 282.729 306.066 264.018C292.137 245.307 275.601 230.465 257.403 220.338C239.204 210.212 219.698 205 200 205C180.302 205 160.796 210.212 142.597 220.338C124.399 230.465 107.863 245.307 93.934 264.018C80.0052 282.729 68.9563 304.942 61.4181 329.389C53.8799 353.836 50 380.039 50 406.5L200 406.5H350Z" fill="white"/>
<circle cx="199.5" cy="107.5" r="82.5" fill="white"/>
</g>
<defs>
<clipPath id="clip0">
<rect width="400" height="400" rx="200" fill="white"/>
</clipPath>
</defs>
</svg>
